<?xml version="1.0" encoding="UTF-8" standalone="no"?>
<!-- Created with Inkscape (http://www.inkscape.org/) -->

<svg
   xmlns:dc="http://purl.org/dc/elements/1.1/"
   xmlns:cc="http://creativecommons.org/ns#"
   xmlns:rdf="http://www.w3.org/1999/02/22-rdf-syntax-ns#"
   xmlns:svg="http://www.w3.org/2000/svg"
   xmlns="http://www.w3.org/2000/svg"
   xmlns:sodipodi="http://sodipodi.sourceforge.net/DTD/sodipodi-0.dtd"
   xmlns:inkscape="http://www.inkscape.org/namespaces/inkscape"
   width="377.09"
   height="441.35999"
   id="svg2"
   version="1.1"
   inkscape:version="0.48.4 r9939"
   sodipodi:docname="My Name logo.svg">
  <defs
     id="defs4" />
  <sodipodi:namedview
     id="base"
     pagecolor="#ffffff"
     bordercolor="#666666"
     borderopacity="1.0"
     inkscape:pageopacity="0.0"
     inkscape:pageshadow="2"
     inkscape:zoom="1.1498047"
     inkscape:cx="239.23894"
     inkscape:cy="130.36861"
     inkscape:document-units="px"
     inkscape:current-layer="layer1"
     showgrid="false"
     inkscape:window-width="1223"
     inkscape:window-height="1000"
     inkscape:window-x="57"
     inkscape:window-y="24"
     inkscape:window-maximized="1" />
  <metadata
     id="metadata7">
    <rdf:RDF>
      <cc:Work
         rdf:about="">
        <dc:format>image/svg+xml</dc:format>
        <dc:type
           rdf:resource="http://purl.org/dc/dcmitype/StillImage" />
        <dc:title></dc:title>
      </cc:Work>
    </rdf:RDF>
  </metadata>
  <g
     inkscape:label="Layer 1"
     inkscape:groupmode="layer"
     id="layer1"
     transform="translate(0,-610.98789)">
    <g
       id="g3152">
      <g
         transform="translate(20.003398,-86.10158)"
         id="g3106">
        <rect
           style="fill:#535d6c;fill-opacity:1;stroke:none"
           id="rect3081"
           width="25.221674"
           height="159.15747"
           x="55.661629"
           y="63.263332"
           transform="translate(0,675.98972)" />
        <rect
           style="fill:#535d6c;fill-opacity:1;stroke:none"
           id="rect3085"
           width="142.63292"
           height="35.65823"
           x="56.531349"
           y="738.38336" />
        <g
           id="g3101"
           transform="translate(-358.32173,65.22847)"
           style="fill:#535d6c">
          <path
             transform="translate(0,675.98972)"
             inkscape:connector-curvature="0"
             id="path3095"
             d="m 467.03584,30.21424 c 0.86971,132.19637 0.86971,133.93579 0.86971,133.93579 L 555.74656,33.693092 z"
             style="fill:#535d6c;stroke:#000000;stroke-width:1px;stroke-linecap:butt;stroke-linejoin:miter;stroke-opacity:1" />
          <path
             transform="translate(0,675.98972)"
             inkscape:connector-curvature="0"
             id="path3097"
             d="M 436.59589,24.995963 z"
             style="fill:#535d6c;stroke:#000000;stroke-width:1px;stroke-linecap:butt;stroke-linejoin:miter;stroke-opacity:1" />
          <path
             transform="translate(0,675.98972)"
             inkscape:connector-curvature="0"
             id="path3099"
             d="M 468.38928,96.187838 C 468.07791,60.9265 468.00589,31.89358 468.22923,31.670239 c 0.22334,-0.223341 19.60453,0.336426 43.0693,1.243925 l 47.01178,-4.43799 -46.20205,68.272464 c -23.10574,34.143202 -42.14585,62.491882 -42.50317,62.867602 -0.35732,0.37571 -0.90444,-28.16706 -1.21581,-63.428402 z"
             style="fill:#535d6c;fill-opacity:1;stroke:none"
             sodipodi:nodetypes="ssscsss" />
        </g>
      </g>
      <g
         transform="matrix(0.64548342,0,0,0.70016636,-144.96492,262.8846)"
         id="g3148">
        <path
           style="fill:none;stroke:#000000;stroke-width:1.48749948px;stroke-linecap:butt;stroke-linejoin:miter;stroke-opacity:1"
           d="m 440.94445,270.89625 c 2.60914,3.47885 154.8089,180.03058 154.8089,180.03058 l 52.18278,8.69713 -194.8157,-233.95278 -34.78851,29.57024 7.82741,-5.21828 z"
           id="path3142"
           inkscape:connector-curvature="0"
           transform="translate(0,610.98789)" />
        <path
           style="fill:#800000;fill-opacity:1;stroke:none"
           d="m 620.14988,454.09395 -23.76648,-4.03839 -77.41748,-90.01384 c -65.32698,-75.95611 -89.98626,-105.70629 -91.36649,-110.22903 -0.26146,-0.85678 24.02141,-21.96587 25.26847,-21.96587 0.41588,0 43.18055,50.95964 95.03259,113.24363 105.79758,127.08268 97.68766,117.26202 96.73128,117.1361 -0.39348,-0.0518 -11.41032,-1.91148 -24.48189,-4.1326 l 0,0 z"
           id="path3144"
           inkscape:connector-curvature="0"
           transform="translate(0,610.98789)" />
      </g>
      <path
         sodipodi:nodetypes="sscscssssscccs"
         inkscape:connector-curvature="0"
         id="path3120"
         d="m 80.453745,983.85933 c -0.27593,-6.338 -0.73108,-21.21587 -1.01145,-33.06189 l -0.50977,-21.53819 70.194905,-100.22162 c 38.6072,-55.12188 70.5165,-100.58229 70.90956,-101.02313 0.59318,-0.66531 8.90507,4.47673 16.69331,10.32711 1.46088,1.09739 -3.36461,8.23619 -64.4944,95.41241 -64.18357,91.5312 -66.00197,94.234 -63.57555,94.4966 2.06126,0.22308 3.44245,-22.7271 3.79592,-20.43825 0.23559,1.52551 -0.19198,40.05173 0.11283,56.91329 l 0.5542,30.65737 -16.083935,0 -16.08393,0 z"
         style="fill:#800000;fill-opacity:1;stroke:none" />
      <path
         transform="translate(0,610.98789)"
         inkscape:connector-curvature="0"
         id="path3124"
         d="m 81.27607,379.82915 c -0.272826,-2.51129 -0.827025,-17.28554 -1.231555,-32.83166 l -0.735507,-28.26567 23.528602,-33.66438 c 12.94073,-18.51541 23.66971,-33.52327 23.84218,-33.3508 0.17247,0.17247 -0.49646,1.9014 -1.48652,3.84207 -0.99005,1.94066 -1.8001,3.72783 -1.8001,3.97148 0,0.24365 3.03313,2.46514 6.74028,4.93665 3.70715,2.47151 7.08781,4.80739 7.51258,5.19086 0.4277,0.38612 -3.63737,7.02729 -9.1105,14.88397 -5.43555,7.80271 -11.40069,16.44939 -13.25587,19.21484 l -3.37305,5.02808 0.30758,37.80537 0.30757,37.80538 -15.374821,-10e-5 -15.374823,-9e-5 -0.496046,-4.566 z m 28.87367,-65.51296 c 0.22619,-2.4249 0.17608,-2.46426 -1.08714,-0.85385 -1.60055,2.04046 -1.73993,4.24635 -0.23712,3.75289 0.59793,-0.19634 1.19385,-1.50091 1.32426,-2.89904 z"
         style="fill:#800000;fill-opacity:1;stroke:none" />
    </g>
  </g>
</svg>
